<svg width="22" height="22" viewBox="0 0 22 22" fill="none" xmlns="http://www.w3.org/2000/svg">
<path d="M15.4412 1.35303H5.97062C3.35538 1.35303 1.23532 3.47309 1.23532 6.08832V15.5589C1.23532 18.1741 3.35538 20.2942 5.97062 20.2942H15.4412C18.0564 20.2942 20.1765 18.1741 20.1765 15.5589V6.08832C20.1765 3.47309 18.0564 1.35303 15.4412 1.35303Z" stroke="black" stroke-width="2" stroke-linecap="round" stroke-linejoin="round"/>
<path d="M14.4941 10.2272C14.6109 11.0154 14.4763 11.8204 14.1093 12.5276C13.7423 13.2349 13.1617 13.8084 12.4499 14.1667C11.7382 14.5249 10.9316 14.6496 10.145 14.523C9.35828 14.3964 8.63154 14.025 8.06811 13.4616C7.50468 12.8981 7.13326 12.1714 7.00667 11.3847C6.88009 10.598 7.00478 9.79145 7.36301 9.07972C7.72125 8.36798 8.29479 7.78733 9.00205 7.42034C9.70931 7.05336 10.5143 6.91873 11.3025 7.03561C12.1064 7.15483 12.8508 7.52946 13.4255 8.10418C14.0002 8.6789 14.3748 9.42322 14.4941 10.2272Z" stroke="black" stroke-width="2" stroke-linecap="round" stroke-linejoin="round"/>
</svg>
