<svg width="19" height="21" viewBox="0 0 19 21" fill="none" xmlns="http://www.w3.org/2000/svg">
<path d="M4.29852 20.2941H0.371636V6.74508H4.29852V20.2941ZM2.33296 4.89686C1.07754 4.89686 0.0588379 3.7825 0.0588379 2.43711C0.0588379 1.09171 1.07754 0 2.33296 0C3.58838 0 4.60709 1.09171 4.60709 2.43711C4.60709 3.7825 3.58838 4.89686 2.33296 4.89686ZM18.9958 20.2941H15.0774V13.6985C15.0774 12.1266 15.0478 10.1108 13.0357 10.1108C10.9941 10.1108 10.6813 11.8186 10.6813 13.5853V20.2941H6.75863V6.74508H10.5249V8.59329H10.5798C11.104 7.52875 12.3848 6.40533 14.2954 6.40533C18.2687 6.40533 19 9.20936 19 12.8514V20.2941H18.9958Z" fill="black"/>
</svg>
