<svg xmlns="http://www.w3.org/2000/svg" id="SvgjsSvg177508" width="4096" height="1248.1559577365038" version="1.1" xmlns:xlink="http://www.w3.org/1999/xlink" xmlns:svgjs="http://svgjs.com/svgjs"><defs id="SvgjsDefs177509"></defs><g id="SvgjsG177510" transform="translate(328, 328) scale(34.4)" opacity="1"><defs id="SvgjsDefs43459"></defs><g id="SvgjsG43460" transform="scale(0.21645021645021645)" opacity="1"><g id="SvgjsG43461" class="O-8uQZWn8" transform="translate(0, 0) scale(0.7952792223089091)" light-content="false" non-strokable="false" fill="#3b8476"><path d="M24 0h76v76c0 13.255-10.745 24-24 24H0V24C0 10.745 10.745 0 24 0z"></path></g><g id="SvgjsG43462" class="8d5_eNE9KM" transform="translate(15.847919078538517, 15.843052891616185) scale(0.4822047109844629)" light-content="true" non-strokable="false" fill="#ffffff"><path d="M36.7 98.8L80.1 84c1.5-.5 2.5-1.9 2.5-3.5v-17c5.9-6.9 9.5-15.9 9.2-25.7C91.3 18.6 76 2.5 56.9 1.2c-21.2-1.5-39 14.5-40.4 35.1l-.1 1c0 3.4-1.3 8.7-2.9 11.8-1.7 3.2-3.4 6.3-4.8 8.5s.2 5 2.7 5h4.9v18.1c0 3.7 3 6.6 6.6 6.6h10.3v9.1c.1 1.7 1.8 2.9 3.5 2.4zM44.6 34l5.6 5.6 13.4-13.3 5.8 5.8L56 45.5l-5.8 5.8-5.8-5.8-5.6-5.6 5.8-5.9z"></path></g><g id="SvgjsG43463" class="text" transform="translate(275.2981580297304, 65.38336611712575) scale(1)" light-content="false" fill="#ffffff"><path d="M-174.59 -37.23L-185.46 -37.23L-185.46 0L-173.87 0L-173.87 -25.91C-172.7 -27.95 -171 -28.97 -168.78 -28.97C-167.03 -28.97 -165.85 -28.53 -165.23 -27.66C-164.61 -26.79 -164.3 -25.38 -164.3 -23.43L-164.3 0L-152.67 0L-152.67 -25.43L-152.71 -25.91C-151.58 -27.95 -149.88 -28.97 -147.58 -28.97C-145.88 -28.97 -144.72 -28.53 -144.07 -27.66C-143.43 -26.79 -143.11 -25.4 -143.11 -23.5L-143.11 0L-131.48 0L-131.48 -24.22C-131.69 -33.35 -135.56 -37.91 -143.11 -37.91C-147.88 -37.91 -151.53 -36.05 -154.05 -32.31C-155.7 -36.05 -158.88 -37.91 -163.58 -37.91C-168.03 -37.91 -171.57 -36.23 -174.21 -32.86Z M-106.85 0.69C-103.8 0.69 -100.95 0.1 -98.3 -1.08C-95.65 -2.27 -93.6 -3.85 -92.15 -5.85L-97.45 -12.11C-99.52 -9.54 -102.38 -8.26 -106.05 -8.26C-108.28 -8.26 -110.09 -8.85 -111.49 -10.05C-112.89 -11.24 -113.8 -12.88 -114.21 -14.97L-91.16 -14.97L-91.16 -19.47C-91.16 -25.28 -92.67 -29.8 -95.7 -33.05C-98.73 -36.29 -102.86 -37.91 -108.08 -37.91C-111.8 -37.91 -115.01 -37.12 -117.72 -35.52C-120.42 -33.93 -122.48 -31.68 -123.89 -28.76C-125.3 -25.85 -126.01 -22.49 -126.01 -18.68L-126.01 -17.72C-126.01 -12.26 -124.24 -7.83 -120.71 -4.42C-117.18 -1.01 -112.56 0.69 -106.85 0.69ZM-108.15 -28.97C-106.32 -28.97 -104.91 -28.46 -103.92 -27.44C-102.94 -26.42 -102.47 -24.98 -102.51 -23.12L-102.51 -22.23L-114.21 -22.23C-113.57 -26.72 -111.55 -28.97 -108.15 -28.97Z M-72.99 -46.48L-84.59 -46.48L-84.59 -37.23L-89.33 -37.23L-89.33 -29.18L-84.59 -29.18L-84.59 -10.7C-84.59 -6.87 -83.63 -4.01 -81.73 -2.13C-79.83 -0.25 -76.88 0.69 -72.89 0.69C-70.62 0.69 -68.44 0.36 -66.35 -0.31L-66.35 -8.6C-67.13 -8.46 -68.09 -8.39 -69.24 -8.39C-70.73 -8.39 -71.73 -8.67 -72.23 -9.22C-72.74 -9.77 -72.99 -10.75 -72.99 -12.15L-72.99 -29.18L-66.87 -29.18L-66.87 -37.23L-72.99 -37.23Z M-41.34 0L-29.74 0L-29.74 -0.58C-30.75 -2.4 -31.28 -5.01 -31.33 -8.43L-31.33 -24.91C-31.39 -28.95 -32.81 -32.12 -35.56 -34.44C-38.31 -36.76 -42.06 -37.91 -46.81 -37.91C-51.56 -37.91 -55.46 -36.79 -58.52 -34.54C-61.59 -32.3 -63.12 -29.37 -63.12 -25.77L-51.52 -25.77C-51.52 -28.48 -50.15 -29.83 -47.39 -29.83C-44.43 -29.83 -42.96 -28.12 -42.96 -24.7L-42.96 -22.74L-46.53 -22.74C-52.22 -22.74 -56.56 -21.71 -59.54 -19.65C-62.52 -17.58 -64.01 -14.53 -64.01 -10.49C-64.01 -7.28 -62.78 -4.62 -60.33 -2.49C-57.88 -0.37 -54.89 0.69 -51.38 0.69C-47.55 0.69 -44.57 -0.65 -42.44 -3.34C-42.12 -1.87 -41.75 -0.76 -41.34 0ZM-48.6 -7.57C-49.7 -7.57 -50.6 -7.9 -51.32 -8.55C-52.03 -9.2 -52.38 -10.06 -52.38 -11.11C-52.38 -14.74 -50.36 -16.55 -46.33 -16.55L-42.96 -16.55L-42.96 -10.6C-43.37 -9.82 -44.05 -9.12 -45 -8.5C-45.95 -7.88 -47.15 -7.57 -48.6 -7.57Z M-9.17 -8.26C-11.12 -8.26 -12.54 -8.98 -13.44 -10.42C-14.33 -11.87 -14.78 -14.46 -14.78 -18.2C-14.78 -20.33 -14.7 -22.01 -14.54 -23.22C-14.03 -27.05 -12.28 -28.97 -9.27 -28.97C-7.69 -28.97 -6.43 -28.45 -5.49 -27.42C-4.55 -26.39 -4.08 -24.91 -4.08 -22.98L6.8 -22.98C6.8 -27.57 5.37 -31.21 2.53 -33.89C-0.32 -36.57 -4.16 -37.91 -9 -37.91C-12.58 -37.91 -15.67 -37.14 -18.29 -35.59C-20.9 -34.04 -22.9 -31.83 -24.29 -28.95C-25.68 -26.07 -26.37 -22.75 -26.37 -18.99L-26.37 -18.51C-26.37 -12.5 -24.81 -7.8 -21.69 -4.4C-18.57 -1.01 -14.31 0.69 -8.89 0.69C-4.28 0.69 -0.52 -0.62 2.41 -3.23C5.33 -5.85 6.8 -9.2 6.8 -13.28L-4.08 -13.28C-4.05 -11.7 -4.49 -10.46 -5.38 -9.58C-6.28 -8.7 -7.54 -8.26 -9.17 -8.26Z M10.24 -18.96L10.27 -17C10.52 -11.56 12.25 -7.25 15.47 -4.08C18.68 -0.9 22.93 0.69 28.23 0.69C33.73 0.69 38.1 -1.01 41.32 -4.42C44.54 -7.83 46.15 -12.43 46.15 -18.23L46.15 -18.65C46.15 -24.59 44.55 -29.28 41.34 -32.74C38.13 -36.19 33.73 -37.91 28.16 -37.91C24.51 -37.91 21.34 -37.13 18.63 -35.58C15.92 -34.02 13.85 -31.78 12.4 -28.88C10.96 -25.98 10.24 -22.67 10.24 -18.96ZM21.83 -18.23L21.86 -20.33C22.19 -26.09 24.28 -28.97 28.16 -28.97C32.43 -28.97 34.56 -25.63 34.56 -18.96L34.56 -17.79C34.47 -11.43 32.36 -8.26 28.23 -8.26C26.12 -8.26 24.53 -9.06 23.45 -10.67C22.37 -12.27 21.83 -14.79 21.83 -18.23Z M49.8 -18.89C49.8 -12.63 51.1 -7.8 53.69 -4.4C56.28 -1.01 59.79 0.69 64.22 0.69C67.89 0.69 70.92 -0.87 73.3 -3.99L73.89 0L84.31 0L84.31 -52.85L72.68 -52.85L72.68 -33.99C70.41 -36.61 67.61 -37.91 64.29 -37.91C59.72 -37.91 56.17 -36.22 53.62 -32.82C51.07 -29.43 49.8 -24.78 49.8 -18.89ZM61.4 -18.17L61.43 -20.3C61.73 -26.08 63.67 -28.97 67.25 -28.97C69.81 -28.97 71.63 -27.87 72.68 -25.67L72.68 -11.49C71.58 -9.34 69.75 -8.26 67.18 -8.26C63.32 -8.26 61.4 -11.56 61.4 -18.17Z M108.91 0.69C111.96 0.69 114.81 0.1 117.46 -1.08C120.11 -2.27 122.16 -3.85 123.6 -5.85L118.3 -12.11C116.24 -9.54 113.37 -8.26 109.7 -8.26C107.48 -8.26 105.66 -8.85 104.27 -10.05C102.87 -11.24 101.96 -12.88 101.55 -14.97L124.6 -14.97L124.6 -19.47C124.6 -25.28 123.09 -29.8 120.06 -33.05C117.03 -36.29 112.9 -37.91 107.67 -37.91C103.96 -37.91 100.74 -37.12 98.04 -35.52C95.33 -33.93 93.27 -31.68 91.86 -28.76C90.45 -25.85 89.75 -22.49 89.75 -18.68L89.75 -17.72C89.75 -12.26 91.51 -7.83 95.05 -4.42C98.58 -1.01 103.2 0.69 108.91 0.69ZM107.6 -28.97C109.44 -28.97 110.85 -28.46 111.83 -27.44C112.82 -26.42 113.29 -24.98 113.25 -23.12L113.25 -22.23L101.55 -22.23C102.19 -26.72 104.21 -28.97 107.6 -28.97Z M151.78 -26.73L151.99 -37.5C151.07 -37.78 149.99 -37.91 148.75 -37.91C145.27 -37.91 142.55 -36.09 140.6 -32.44L140.22 -37.23L129.35 -37.23L129.35 0L140.94 0L140.94 -23.57C141.97 -25.86 144.31 -27.01 147.96 -27.01Z M175.45 -10.46C175.45 -9.43 175.05 -8.59 174.26 -7.95C173.47 -7.31 172.29 -6.98 170.7 -6.98C168.98 -6.98 167.57 -7.38 166.47 -8.17C165.37 -8.96 164.8 -10.22 164.75 -11.94L153.91 -11.94C153.91 -9.76 154.61 -7.68 156.01 -5.71C157.41 -3.74 159.36 -2.18 161.86 -1.03C164.36 0.11 167.2 0.69 170.39 0.69C175.19 0.69 179.09 -0.38 182.11 -2.51C185.12 -4.64 186.63 -7.41 186.63 -10.8C186.63 -15.78 183.83 -19.23 178.24 -21.16C176.56 -21.73 174.62 -22.23 172.41 -22.64C170.19 -23.05 168.58 -23.58 167.57 -24.22C166.56 -24.86 166.06 -25.7 166.06 -26.73C166.06 -27.74 166.47 -28.59 167.3 -29.26C168.12 -29.94 169.14 -30.28 170.36 -30.28C173.5 -30.28 175.07 -28.79 175.07 -25.8L186.7 -25.8C186.7 -29.43 185.21 -32.35 182.23 -34.58C179.25 -36.8 175.3 -37.91 170.39 -37.91C165.83 -37.91 162.14 -36.81 159.31 -34.59C156.49 -32.38 155.08 -29.57 155.08 -26.15C155.08 -24.22 155.58 -22.51 156.56 -21.02C157.55 -19.53 158.98 -18.26 160.86 -17.22C162.74 -16.18 165.13 -15.33 168.02 -14.69C170.91 -14.05 172.87 -13.43 173.9 -12.83C174.93 -12.24 175.45 -11.45 175.45 -10.46Z"></path></g></g></g></svg>