<svg width="25" height="24" viewBox="0 0 25 24" fill="none" xmlns="http://www.w3.org/2000/svg">
<path d="M12.7862 0.139634L23.2621 7.03806C23.6884 7.31862 24.0383 7.70066 24.2804 8.14987C24.5225 8.59907 24.6492 9.10137 24.6492 9.61166V19.608C24.6492 20.5738 24.2656 21.5 23.5827 22.1829C22.8998 22.8658 21.9736 23.2494 21.0079 23.2494H3.64136C2.67561 23.2494 1.74942 22.8658 1.06653 22.1829C0.383643 21.5 1.90884e-07 20.5738 1.90884e-07 19.608V9.61166C-0.000179478 9.10118 0.126478 8.59865 0.36859 8.14924C0.610702 7.69982 0.960682 7.31761 1.38708 7.03694L11.863 0.138514C12.0002 0.0481565 12.1609 0 12.3252 0C12.4895 0 12.6501 0.0481565 12.7873 0.138514L12.7862 0.139634ZM22.9686 10.3041L12.7705 16.6793C12.6369 16.763 12.4823 16.8073 12.3246 16.8073C12.1669 16.8073 12.0124 16.763 11.8787 16.6793L1.68063 10.3052V19.608C1.68063 20.6904 2.55904 21.5688 3.64136 21.5688H21.0079C21.5279 21.5688 22.0266 21.3622 22.3943 20.9945C22.762 20.6268 22.9686 20.1281 22.9686 19.608V10.3041ZM12.3246 1.84715L2.31143 8.44194C2.24199 8.48719 2.17675 8.53856 2.11647 8.59544L12.3246 14.9751L22.5316 8.59544C22.4721 8.53866 22.4076 8.48729 22.3389 8.44194L12.3246 1.84715Z" fill="white"/>
</svg>
