<svg width="27" height="22" viewBox="0 0 27 22" fill="none" xmlns="http://www.w3.org/2000/svg">
<path d="M25.4118 1.36364C24.3517 2.07667 23.1781 2.62202 21.936 2.9787C21.2693 2.24771 20.3833 1.72961 19.3977 1.49446C18.4122 1.25931 17.3748 1.31846 16.4256 1.66391C15.4765 2.00936 14.6616 2.62444 14.091 3.42597C13.5204 4.22749 13.2217 5.17679 13.2353 6.14547V7.20106C11.29 7.24916 9.36239 6.83774 7.62418 6.00343C5.88597 5.16913 4.39111 3.93784 3.27274 2.41923C3.27274 2.41923 -1.15507 11.9195 8.8075 16.1419C6.52776 17.6176 3.812 18.3575 1.05884 18.2531C11.0214 23.531 23.1979 18.2531 23.1979 6.1138C23.1969 5.81977 23.1672 5.52646 23.1093 5.23766C24.2391 4.1752 25.0363 2.83378 25.4118 1.36364V1.36364Z" stroke="black" stroke-width="2" stroke-linecap="round" stroke-linejoin="round"/>
</svg>
