<svg width="18" height="18" viewBox="0 0 18 18" fill="none" xmlns="http://www.w3.org/2000/svg">
<g clip-path="url(#clip0_158_78)">
<path d="M8.4525 0H9.6125C12.0225 0.18375 14.3612 1.34375 15.895 3.2225C16.2113 3.63 16.72 3.80625 17.0788 4.1675C17.58 4.6375 17.87 5.28875 18 5.95625V6.68875C17.8525 7.24 17.9175 7.80625 18 8.3625V9.54125C17.8762 11.3863 17.1887 13.195 16.0212 14.6337C14.465 16.6012 12.05 17.84 9.54875 18H8.39C6.5975 17.855 4.84125 17.1975 3.4325 16.0737C1.4275 14.5175 0.16125 12.0763 0 9.54875V8.38875C0.08375 7.81875 0.1425 7.2375 0 6.67V5.985C0.13875 5.06875 0.67 4.21125 1.48 3.745C1.90875 3.51375 2.19 3.11 2.51 2.75875C4.055 1.14 6.22125 0.145 8.4525 0V0ZM7.5225 1.25625C5.52 1.6275 3.70375 2.8225 2.53375 4.48375C1.40875 4.78 0.78375 6.15125 1.31125 7.19C1.005 8.77 1.065 10.4525 1.69 11.9513C2.48875 13.9475 4.1425 15.58 6.15125 16.35C7.6 16.9213 9.2225 17.0088 10.7413 16.6875C13.195 16.1513 15.3225 14.355 16.2763 12.0325C16.9288 10.515 17.0025 8.8 16.6887 7.1925C17.2162 6.1525 16.5925 4.78 15.4675 4.48375C14.6687 3.36875 13.5975 2.445 12.3525 1.865C10.8612 1.145 9.14375 0.98125 7.5225 1.25625Z" fill="black"/>
<path d="M4.50497 10.6887C7.50247 10.6862 10.4987 10.6874 13.495 10.6874C13.5312 12.2224 12.6787 13.7137 11.3787 14.5149C9.98872 15.3974 8.10997 15.4174 6.70122 14.5649C5.35872 13.7737 4.46872 12.2549 4.50497 10.6887ZM5.13497 11.2849C5.14247 11.6499 5.26247 12.0037 5.41122 12.3324C6.56122 12.4312 7.71747 12.3162 8.86997 12.3849C10.1087 12.3137 11.3525 12.4524 12.5887 12.3324C12.7562 11.9887 12.8462 11.6112 12.8737 11.2312C10.7875 11.2737 8.70372 11.2287 6.61747 11.2662C6.12497 11.2924 5.61122 11.1562 5.13497 11.2849ZM7.29622 14.2512C8.35247 14.7362 9.61622 14.7437 10.675 14.2624C9.85122 13.2337 8.14872 13.2799 7.29622 14.2512Z" fill="black"/>
<path d="M7.52265 1.25624C9.1439 0.981238 10.8614 1.14499 12.3526 1.86499C13.5976 2.44499 14.6689 3.36874 15.4676 4.48374C14.8626 4.31999 14.2576 4.51874 13.7064 4.76499C13.3876 4.08624 12.8164 3.43499 12.0164 3.39499C11.0601 3.24249 10.0889 3.92874 9.8889 4.86874C9.74765 5.37999 9.8939 5.91374 10.1326 6.37124C10.7489 7.58249 11.3451 8.80374 11.9639 10.015C13.2051 9.41374 14.4339 8.78749 15.6714 8.17624C16.1101 7.97249 16.4776 7.63124 16.6889 7.19249C17.0026 8.79999 16.9289 10.515 16.2764 12.0325C15.3226 14.355 13.1951 16.1512 10.7414 16.6875C9.22265 17.0087 7.60015 16.9212 6.1514 16.35C4.14265 15.58 2.4889 13.9475 1.69015 11.9512C1.06515 10.4525 1.00515 8.76999 1.3114 7.18999C1.52015 7.62999 1.8889 7.97249 2.3289 8.17624C3.56765 8.78624 4.7939 9.41874 6.04015 10.0125C6.67765 8.74374 7.31515 7.47499 7.9464 6.20374C8.3214 5.49124 8.19765 4.55874 7.63265 3.98124C6.97015 3.23499 5.7064 3.17874 4.9589 3.82874C4.6589 4.08499 4.48015 4.44624 4.2839 4.78124C3.7464 4.50374 3.13765 4.32124 2.5339 4.48374C3.7039 2.82249 5.52015 1.62749 7.52265 1.25624ZM4.50515 10.6887C4.4689 12.255 5.3589 13.7737 6.7014 14.565C8.11015 15.4175 9.9889 15.3975 11.3789 14.515C12.6789 13.7137 13.5314 12.2225 13.4951 10.6875C10.4989 10.6875 7.50265 10.6862 4.50515 10.6887Z" fill="#FFC83D"/>
<path d="M4.95886 3.82881C5.70636 3.17881 6.97011 3.23506 7.63261 3.98131C8.19761 4.55881 8.32136 5.49131 7.94636 6.20381C7.31511 7.47506 6.67761 8.74381 6.04011 10.0126C4.79386 9.41881 3.56761 8.78631 2.32886 8.17631C1.88886 7.97256 1.52011 7.63006 1.31136 7.19006C0.783857 6.15131 1.40886 4.78006 2.53386 4.48381C3.13761 4.32131 3.74636 4.50381 4.28386 4.78131C4.48011 4.44631 4.65886 4.08506 4.95886 3.82881Z" fill="#F03A17"/>
<path d="M9.88887 4.86879C10.0889 3.92879 11.0601 3.24254 12.0164 3.39504C12.8164 3.43504 13.3876 4.08629 13.7064 4.76504C14.2576 4.51879 14.8626 4.32004 15.4676 4.48379C16.5926 4.78004 17.2164 6.15254 16.6889 7.19254C16.4776 7.63129 16.1101 7.97254 15.6714 8.17629C14.4339 8.78754 13.2051 9.41379 11.9639 10.015C11.3451 8.80379 10.7489 7.58254 10.1326 6.37129C9.89387 5.91379 9.74762 5.38004 9.88887 4.86879Z" fill="#F03A17"/>
<path d="M7.29639 14.2513C8.14889 13.28 9.85139 13.2338 10.6751 14.2625C9.61639 14.7438 8.35264 14.7363 7.29639 14.2513Z" fill="#F03A17"/>
<path d="M5.13477 11.285C5.61102 11.1563 6.12477 11.2925 6.61727 11.2663C8.70352 11.2288 10.7873 11.2738 12.8735 11.2313C12.846 11.6113 12.756 11.9888 12.5885 12.3325C11.3523 12.4525 10.1085 12.3138 8.86977 12.385C7.71727 12.3163 6.56102 12.4313 5.41102 12.3325C5.26227 12.0038 5.14227 11.65 5.13477 11.285Z" fill="white"/>
</g>
<defs>
<clipPath id="clip0_158_78">
<rect width="18" height="18" fill="white"/>
</clipPath>
</defs>
</svg>
