<svg width="14" height="14" viewBox="0 0 14 14" fill="none" xmlns="http://www.w3.org/2000/svg">
<g clip-path="url(#clip0_158_82)">
<path d="M2.95361 1.49917C3.42222 1.21139 4.08139 1.25223 4.48292 1.6382C4.88542 2.01737 5.26556 2.41987 5.65833 2.80973C6.02875 2.47139 6.47597 2.16417 7.00194 2.18264C7.52792 2.14278 7.99264 2.43348 8.36403 2.7757C8.75292 2.39945 9.11847 1.99889 9.51708 1.63334C9.94389 1.23959 10.639 1.20848 11.1115 1.53709C11.3896 1.74223 11.5967 2.0232 11.8329 2.27209C12.4415 2.91959 13.0443 3.57195 13.6481 4.22431C13.824 4.41487 13.9358 4.65306 14 4.90292V5.30348C13.9485 5.57862 13.825 5.83917 13.6238 6.03556C13.0161 6.65098 12.3978 7.25667 11.7901 7.87209C11.9778 8.43695 11.8883 9.09903 11.4499 9.52584C10.711 10.2696 9.97208 11.0153 9.2225 11.7493C8.79083 12.179 8.15695 12.2801 7.57458 12.1907C7.13028 12.5786 6.51583 12.7857 5.93153 12.6418C5.43764 12.5397 5.08181 12.1586 4.73181 11.8261C4.33125 11.761 3.92292 11.6395 3.62931 11.3429C2.95458 10.6886 2.30222 10.012 1.63042 9.35473C1.38056 9.10098 1.09083 8.83264 1.05 8.45834C1.01792 8.2007 0.97125 7.94598 0.875972 7.70389C0.740833 7.34223 0.825417 6.94848 0.945 6.59556C0.56875 6.24459 0.155556 5.88973 0 5.37931V4.91362C0.114722 4.37792 0.556111 4.02112 0.904167 3.6332C1.37764 3.10139 1.88028 2.59584 2.35375 2.06501C2.53944 1.86278 2.71736 1.64501 2.95361 1.49917ZM3.30264 2.33139C2.53556 3.15195 1.77139 3.97542 1.015 4.80667C0.805 5.00306 0.86625 5.35987 1.09375 5.51834C1.49042 5.86931 1.83264 6.29126 2.25653 6.60431C1.95125 6.68889 1.66056 6.94848 1.68486 7.28876C1.64986 7.53473 1.85986 7.69515 1.99306 7.86917C1.85792 8.08598 1.85014 8.36987 2.05431 8.54778C2.76403 9.25848 3.47278 9.97209 4.18833 10.677C4.41583 10.9151 4.76097 10.9783 5.075 10.9151C5.35792 11.1854 5.60194 11.5053 5.93153 11.7201C6.33306 11.9496 6.80361 11.7483 7.08069 11.4236C7.18667 11.3108 7.29458 11.2 7.40153 11.0882C7.62708 11.3089 7.96444 11.3935 8.26972 11.3147C8.55167 11.2233 8.74611 10.9881 8.95222 10.7888C9.05625 10.6828 9.16125 10.5778 9.26625 10.4718C9.57639 10.1636 9.88556 9.85348 10.1947 9.54334C10.2987 9.44028 10.4028 9.33626 10.5078 9.2332C10.7226 9.01542 11.0056 8.7957 11.0133 8.46028C11.024 8.18223 10.7985 7.98292 10.6225 7.80015C11.4119 7.03501 12.1781 6.24556 12.9578 5.4707C13.1522 5.31028 13.1726 4.98362 12.9879 4.80862C12.2481 3.99098 11.4926 3.18695 10.745 2.37709C10.5924 2.16417 10.2647 2.10487 10.0761 2.30223C9.48889 2.84473 8.96389 3.4582 8.36306 3.98417C7.92458 3.70126 7.66986 3.09167 7.08944 3.06251C6.44194 3.03431 6.11722 3.69348 5.67778 4.05514C5.11972 3.47667 4.54611 2.91376 3.97736 2.34695C3.81306 2.1457 3.46889 2.11556 3.30264 2.33139Z" fill="black"/>
<path d="M3.3027 2.33147C3.46895 2.11564 3.81312 2.14577 3.97743 2.34702C4.54618 2.91383 5.11979 3.47675 5.67784 4.05522C5.30645 4.45189 4.90493 4.82036 4.53743 5.22189C4.35173 5.38911 4.32937 5.70508 4.51604 5.88008C4.96909 6.32147 5.75368 6.38175 6.2427 5.96369C6.6909 5.58355 7.07104 5.12952 7.5027 4.73091C7.63104 4.83494 7.76132 4.93702 7.87993 5.05175C8.78701 5.97536 9.70187 6.89022 10.6226 7.80022C10.7985 7.983 11.0241 8.1823 11.0134 8.46036C11.0056 8.79577 10.7227 9.0155 10.5078 9.23327C10.1569 8.8998 9.83507 8.53814 9.47729 8.21147C9.37521 8.08994 9.2109 8.1123 9.0709 8.10355C9.07576 8.24452 9.05048 8.41077 9.17395 8.51286C9.50257 8.86772 9.86423 9.1905 10.1948 9.54341C9.88562 9.85355 9.57645 10.1637 9.26632 10.4719C8.93382 10.152 8.6227 9.80883 8.28632 9.49189C8.17937 9.37327 8.01604 9.35578 7.8702 9.32078C7.86437 9.44522 7.76715 9.59883 7.8877 9.69897C8.21923 10.084 8.60715 10.4165 8.95229 10.7888C8.74618 10.9881 8.55173 11.2234 8.26979 11.3148C7.96451 11.3936 7.62715 11.309 7.40159 11.0883C7.09048 10.7859 6.8134 10.4437 6.44493 10.2074C6.37201 10.3008 6.29812 10.3941 6.22132 10.4855C6.49937 10.8063 6.81048 11.0961 7.08076 11.4237C6.80368 11.7484 6.33312 11.9497 5.93159 11.7202C5.60201 11.5054 5.35798 11.1855 5.07507 10.9152C5.52132 10.7334 5.8334 10.2142 5.62145 9.74564C5.50576 9.38689 5.12951 9.25661 4.80382 9.15841C4.71534 8.94161 4.65409 8.70536 4.50826 8.51675C4.33326 8.34369 4.07757 8.30091 3.8559 8.21536C3.77715 8.00633 3.72951 7.77591 3.58757 7.59702C3.44173 7.45605 3.24145 7.39577 3.06257 7.30633C2.96923 7.12452 2.90409 6.91841 2.75729 6.77161C2.61243 6.66369 2.42479 6.65008 2.25659 6.60439C1.8327 6.29133 1.49048 5.86939 1.09382 5.51841C0.866316 5.35994 0.805066 5.00314 1.01507 4.80675C1.77145 3.9755 2.53562 3.15202 3.3027 2.33147Z" fill="#FFC83D"/>
<path d="M10.0758 2.30224C10.2644 2.10488 10.592 2.16419 10.7447 2.37711C11.4923 3.18697 12.2477 3.99099 12.9876 4.80863C13.1723 4.98363 13.1519 5.3103 12.9575 5.47072C12.1777 6.24558 11.4116 7.03502 10.6222 7.80016C9.70149 6.89016 8.78662 5.9753 7.87954 5.05169C7.76093 4.93697 7.63065 4.83488 7.50232 4.73086C7.07065 5.12947 6.69051 5.5835 6.24232 5.96363C5.75329 6.38169 4.96871 6.32141 4.51565 5.88002C4.32899 5.70502 4.35135 5.38905 4.53704 5.22183C4.90454 4.8203 5.30607 4.45183 5.67746 4.05516C6.1169 3.69349 6.44162 3.03433 7.08912 3.06252C7.66954 3.09169 7.92426 3.70127 8.36274 3.98419C8.96357 3.45822 9.48857 2.84474 10.0758 2.30224Z" fill="#EBA300"/>
<path d="M2.25621 6.60437C2.4244 6.65006 2.61204 6.66368 2.7569 6.77159C2.90371 6.9184 2.96885 7.12451 3.06218 7.30631C3.24107 7.39576 3.44135 7.45604 3.58718 7.59701C3.72912 7.7759 3.77676 8.00631 3.85551 8.21534C4.07718 8.3009 4.33287 8.34368 4.50787 8.51673C4.65371 8.70534 4.71496 8.94159 4.80343 9.1584C5.12912 9.25659 5.50537 9.38687 5.62107 9.74562C5.83301 10.2142 5.52093 10.7334 5.07468 10.9152C4.76065 10.9784 4.41551 10.9152 4.18801 10.677C3.47246 9.97215 2.76371 9.25854 2.05398 8.54784C1.84982 8.36993 1.8576 8.08604 1.99273 7.86923C1.85954 7.6952 1.64954 7.53479 1.68454 7.28881C1.66023 6.94854 1.95093 6.68895 2.25621 6.60437Z" fill="#EBA300"/>
<path d="M9.0708 8.10364C9.2108 8.11239 9.37511 8.09003 9.47719 8.21155C9.83497 8.53822 10.1568 8.89989 10.5077 9.23336C10.4027 9.33642 10.2987 9.44044 10.1947 9.5435C9.86413 9.19058 9.50247 8.8678 9.17386 8.51294C9.05038 8.41086 9.07566 8.24461 9.0708 8.10364Z" fill="#EBA300"/>
<path d="M7.86971 9.32068C8.01554 9.35568 8.17887 9.37318 8.28582 9.49179C8.62221 9.80873 8.93332 10.1519 9.26582 10.4718C9.16082 10.5778 9.05582 10.6828 8.95179 10.7887C8.60665 10.4164 8.21873 10.0839 7.88721 9.69887C7.76665 9.59873 7.86387 9.44512 7.86971 9.32068Z" fill="#EBA300"/>
<path d="M6.44431 10.2074C6.81279 10.4436 7.08987 10.7859 7.40098 11.0882C7.29404 11.2 7.18612 11.3109 7.08015 11.4236C6.80987 11.096 6.49876 10.8063 6.2207 10.4855C6.29751 10.3941 6.3714 10.3007 6.44431 10.2074Z" fill="#EBA300"/>
</g>
<defs>
<clipPath id="clip0_158_82">
<rect width="14" height="14" fill="white"/>
</clipPath>
</defs>
</svg>
