<svg width="18" height="18" viewBox="0 0 18 18" fill="none" xmlns="http://www.w3.org/2000/svg">
<g clip-path="url(#clip0_158_80)">
<path d="M8.4225 0H9.54125C11.4188 0.13 13.2575 0.83625 14.7087 2.04C16.6425 3.61 17.855 6.01125 18 8.495V9.4725C17.8862 11.4312 17.1287 13.35 15.8462 14.8363C14.2875 16.695 11.9475 17.8375 9.53375 18H8.49875C6.61125 17.8738 4.75625 17.1713 3.29875 15.9575C1.37625 14.4062 0.18 12.0325 0 9.57625V8.47C0.1625 5.965 1.395 3.54375 3.36625 1.9825C4.79375 0.8175 6.59 0.14125 8.4225 0V0ZM8.28375 1.16125C5.495 1.38 2.9175 3.235 1.805 5.8C1.14 7.26875 0.9875 8.94125 1.275 10.5212C1.71 12.7787 3.18875 14.8075 5.21375 15.9012C6.845 16.8113 8.80125 17.0725 10.625 16.7038C12.665 16.2775 14.5163 15.0087 15.6313 13.245C16.8237 11.4163 17.1612 9.0825 16.6112 6.97875C16.0987 5.005 14.7787 3.2625 13.0212 2.22875C11.6087 1.375 9.92625 1.0175 8.28375 1.16125Z" fill="black"/>
<path d="M5.0289 6.39492C5.91015 5.92117 7.1089 6.27867 7.60015 7.14742C7.85265 7.52867 7.86515 7.99492 7.8614 8.43617C7.6864 8.43492 7.5114 8.43492 7.33515 8.43367C7.29015 7.73117 6.7464 7.05367 6.01265 7.03367C5.21515 6.93742 4.50515 7.64742 4.49015 8.42742C4.30265 8.42992 4.1139 8.43242 3.9264 8.43617C3.8664 7.61992 4.2589 6.74617 5.0289 6.39492Z" fill="black"/>
<path d="M10.7985 6.67239C11.5998 5.92489 13.0085 6.06864 13.6548 6.94989C13.991 7.36739 14.0898 7.91239 14.0723 8.43614C13.886 8.43239 13.6985 8.42989 13.511 8.42739C13.4648 8.09239 13.3885 7.74114 13.1373 7.49489C12.6923 6.96614 11.836 6.87114 11.2835 7.28364C10.8985 7.53614 10.7273 7.99489 10.666 8.43489C10.4885 8.43489 10.311 8.43489 10.1335 8.43489C10.0898 7.78489 10.2785 7.09739 10.7985 6.67239Z" fill="black"/>
<path d="M5.09136 11.7525C4.96511 11.4138 5.26511 11.0013 5.62886 11.0325C6.03136 11.04 6.19761 11.485 6.43636 11.7425C7.65886 13.3213 10.3376 13.3163 11.5576 11.7388C11.7364 11.515 11.8951 11.2688 12.1164 11.0838C12.4426 10.9213 12.8489 11.135 12.9276 11.485C12.9614 11.8163 12.7214 12.085 12.5501 12.3438C11.7826 13.3175 10.5951 13.9288 9.36636 14.0488C7.88636 14.17 6.37136 13.5013 5.44511 12.3463C5.31011 12.1588 5.17386 11.9688 5.09136 11.7525Z" fill="black"/>
<path d="M8.28393 1.1613C9.92643 1.01755 11.6089 1.37505 13.0214 2.2288C14.7789 3.26255 16.0989 5.00505 16.6114 6.97881C17.1614 9.08255 16.8239 11.4163 15.6314 13.2451C14.5164 15.0088 12.6652 16.2776 10.6252 16.7038C8.80143 17.0726 6.84518 16.8113 5.21393 15.9013C3.18893 14.8076 1.71018 12.7788 1.27518 10.5213C0.987679 8.9413 1.14018 7.26881 1.80518 5.80006C2.91768 3.23505 5.49518 1.38005 8.28393 1.1613ZM5.02893 6.39505C4.25893 6.7463 3.86643 7.62005 3.92643 8.4363C4.11393 8.43255 4.30268 8.43005 4.49018 8.42755C4.50518 7.64755 5.21518 6.93755 6.01268 7.0338C6.74643 7.0538 7.29018 7.73131 7.33518 8.4338C7.51143 8.43505 7.68643 8.43505 7.86143 8.4363C7.86518 7.99505 7.85268 7.5288 7.60018 7.14755C7.10893 6.2788 5.91018 5.9213 5.02893 6.39505ZM10.7989 6.67255C10.2789 7.09756 10.0902 7.78506 10.1339 8.43506H10.6664C10.7277 7.99506 10.8989 7.5363 11.2839 7.2838C11.8364 6.8713 12.6927 6.9663 13.1377 7.49505C13.3889 7.7413 13.4652 8.09255 13.5114 8.42755C13.6989 8.43005 13.8864 8.43255 14.0727 8.4363C14.0902 7.91255 13.9914 7.36755 13.6552 6.95005C13.0089 6.0688 11.6002 5.92506 10.7989 6.67255ZM3.93643 9.43755C3.20143 10.0551 3.19643 11.3188 3.93518 11.9351C4.33393 12.3288 4.91268 12.3951 5.44518 12.3463C6.37143 13.5013 7.88643 14.1701 9.36643 14.0488C10.5952 13.9288 11.7827 13.3176 12.5502 12.3438C13.0514 12.3863 13.5977 12.3488 13.9927 11.9988C14.7727 11.4226 14.8302 10.1501 14.1252 9.49255C13.4664 8.79505 12.2102 8.8613 11.6302 9.62755C11.1139 10.2138 11.1902 11.0951 11.5577 11.7388C10.3377 13.3163 7.65893 13.3213 6.43643 11.7426C6.76393 11.1451 6.88143 10.3626 6.47268 9.77255C5.96268 8.91255 4.65268 8.7463 3.93643 9.43755Z" fill="#FFC83D"/>
<path d="M3.9361 9.43762C4.65235 8.74637 5.96235 8.91262 6.47235 9.77262C6.8811 10.3626 6.7636 11.1451 6.4361 11.7426C6.19735 11.4851 6.0311 11.0401 5.6286 11.0326C5.26485 11.0014 4.96485 11.4139 5.0911 11.7526C5.1736 11.9689 5.30985 12.1589 5.44485 12.3464C4.91235 12.3951 4.3336 12.3289 3.93485 11.9351C3.1961 11.3189 3.2011 10.0551 3.9361 9.43762Z" fill="#F7894A"/>
<path d="M11.6299 9.62766C12.2099 8.86141 13.4661 8.79517 14.1249 9.49266C14.8299 10.1502 14.7724 11.4227 13.9924 11.9989C13.5974 12.3489 13.0511 12.3864 12.5499 12.3439C12.7211 12.0852 12.9611 11.8164 12.9274 11.4852C12.8486 11.1352 12.4424 10.9214 12.1161 11.0839C11.8949 11.2689 11.7361 11.5152 11.5574 11.7389C11.1899 11.0952 11.1136 10.2139 11.6299 9.62766Z" fill="#F7894A"/>
</g>
<defs>
<clipPath id="clip0_158_80">
<rect width="18" height="18" fill="white"/>
</clipPath>
</defs>
</svg>
