<svg width="18" height="18" viewBox="0 0 18 18" fill="none" xmlns="http://www.w3.org/2000/svg">
<g clip-path="url(#clip0_158_79)">
<path d="M8.9689 0H9.53515C10.2152 0.09 10.7789 0.5625 11.0802 1.165C12.3539 3.5975 13.6252 6.03375 14.8952 8.47C15.1252 8.89875 15.2039 9.3875 15.1902 9.87125C15.1527 11.2 15.3214 12.5775 14.8389 13.8512C14.0652 16.15 11.8289 17.8325 9.4164 18H8.6014C7.5514 17.915 6.52015 17.5737 5.6364 16.9975C4.06765 15.9875 2.99765 14.2388 2.8389 12.3763C2.78015 11.525 2.72265 10.6275 3.11515 9.84C2.9664 9.45125 2.77765 9.055 2.8114 8.6275C2.8389 7.745 3.53265 6.93375 4.40765 6.7925C5.1889 6.68125 5.98015 6.7925 6.7664 6.76625C6.2889 6.23375 5.70765 5.7875 5.31765 5.18125C4.80015 4.3525 5.0789 3.1725 5.87515 2.6225C6.2739 2.2925 6.8039 2.27 7.29515 2.24875C7.32515 1.84 7.3264 1.4075 7.54265 1.045C7.82765 0.4975 8.3789 0.14125 8.9689 0V0ZM8.6014 1.475C8.3789 1.74625 8.40515 2.13375 8.56515 2.4275C9.25515 3.83375 9.95515 5.23375 10.6402 6.64125C9.7039 5.6925 8.75015 4.76125 7.8164 3.80875C7.6214 3.62375 7.41515 3.39375 7.12265 3.395C6.6314 3.315 6.1414 3.76375 6.18515 4.26C6.18265 4.54 6.38515 4.755 6.56515 4.945C7.5414 5.9125 8.5089 6.8875 9.4814 7.8575C8.02765 7.8575 6.5739 7.85875 5.1189 7.855C4.75265 7.8525 4.3189 7.89 4.10015 8.23125C3.6889 8.72375 4.1014 9.56875 4.74265 9.55375C5.8539 9.5875 6.9664 9.53625 8.0764 9.57375C9.1714 9.64875 10.1264 10.6375 10.1064 11.745C10.1814 12.7925 9.39265 13.7887 8.37515 14.0075C7.2564 14.29 6.01015 13.5625 5.7114 12.4487C5.52015 11.8487 5.6914 11.2062 5.53765 10.605C5.2564 9.92375 4.14015 10.015 3.9714 10.7325C3.8864 11.6625 3.90765 12.6287 4.2314 13.5162C4.69515 14.8425 5.7414 15.9475 7.04265 16.4788C7.92765 16.87 8.92765 16.9338 9.87765 16.795C11.6564 16.4888 13.2214 15.1663 13.7864 13.4462C14.1502 12.465 14.0427 11.405 14.0602 10.38C14.0527 9.88375 14.1302 9.35 13.8552 8.90625C12.5739 6.46875 11.3164 4.01875 10.0239 1.5875C9.7864 1.02625 8.92765 0.97875 8.6014 1.475ZM6.7339 10.6938C6.7389 11.1938 6.6839 11.7075 6.82015 12.1962C7.04515 12.855 7.9364 13.1687 8.50265 12.7362C9.08765 12.3713 9.1614 11.4362 8.63515 10.99C8.12265 10.5162 7.3639 10.7313 6.7339 10.6938Z" fill="black"/>
<path d="M8.60128 1.47503C8.92753 0.978777 9.78628 1.02628 10.0238 1.58753C11.3163 4.01878 12.5738 6.46878 13.855 8.90628C14.13 9.35003 14.0525 9.88378 14.06 10.38C14.0425 11.405 14.15 12.465 13.7863 13.4463C13.2213 15.1663 11.6563 16.4888 9.87753 16.795C8.92753 16.9338 7.92753 16.87 7.04253 16.4788C5.74128 15.9475 4.69503 14.8425 4.23128 13.5163C3.90753 12.6288 3.88628 11.6625 3.97128 10.7325C4.14003 10.015 5.25628 9.92378 5.53753 10.605C5.69128 11.2063 5.52003 11.8488 5.71128 12.4488C6.01003 13.5625 7.25628 14.29 8.37503 14.0075C9.39253 13.7888 10.1813 12.7925 10.1063 11.745C10.1263 10.6375 9.17128 9.64878 8.07628 9.57378C6.96628 9.53628 5.85378 9.58753 4.74253 9.55378C4.10128 9.56878 3.68878 8.72378 4.10003 8.23128C4.31878 7.89003 4.75253 7.85253 5.11878 7.85503C6.57378 7.85878 8.02753 7.85753 9.48128 7.85753C10.0688 7.85878 10.655 7.85753 11.2413 7.85503C11.0475 7.44753 10.8538 7.03878 10.64 6.64128C9.95503 5.23378 9.25503 3.83378 8.56503 2.42753C8.40503 2.13378 8.37878 1.74628 8.60128 1.47503Z" fill="#FFC83D"/>
<path d="M6.18486 4.26004C6.14111 3.76379 6.63111 3.31504 7.12236 3.39504C7.41486 3.39379 7.62111 3.62379 7.81611 3.80879C8.74986 4.76129 9.70361 5.69254 10.6399 6.64129C10.8536 7.03879 11.0474 7.44754 11.2411 7.85504C10.6549 7.85754 10.0686 7.85879 9.48111 7.85754C8.50861 6.88754 7.54111 5.91254 6.56486 4.94504C6.38486 4.75504 6.18236 4.54004 6.18486 4.26004Z" fill="#D48C00"/>
</g>
<defs>
<clipPath id="clip0_158_79">
<rect width="18" height="18" fill="white"/>
</clipPath>
</defs>
</svg>
