<svg width="16" height="16" viewBox="0 0 16 16" fill="none" xmlns="http://www.w3.org/2000/svg">
<g clip-path="url(#clip0_158_83)">
<path d="M8.90222 0H7.12444C5.38111 0.105556 3.60556 0.305556 1.98333 0.994444C1.10778 1.36111 0.192222 1.98556 0 2.98111V3.48333C0.0755558 3.95667 0.346667 4.36444 0.677778 4.69889C0.351111 5.61667 0.0477781 6.55444 0 7.53556V8.45111C0.112222 10.1811 0.78 11.8778 1.91667 13.1911C3.29222 14.8322 5.35444 15.8389 7.48222 16H8.49222C10.1522 15.8711 11.7833 15.2567 13.0667 14.1856C14.7622 12.8211 15.8122 10.7378 16 8.57778V7.56556C15.9389 6.69778 15.7511 5.83889 15.4211 5.03444C15.3933 4.90778 15.2778 4.74111 15.3989 4.62889C15.6811 4.29222 15.9378 3.91778 16 3.47222V3.02778C15.8533 2.06222 14.99 1.43 14.1567 1.05667C12.5078 0.32 10.6867 0.113333 8.90222 0V0ZM11.6656 1.33778C12.6044 1.52556 13.57 1.75556 14.3722 2.30333C14.7278 2.55556 15.0956 2.95889 14.9633 3.43333C14.8167 3.88111 14.4044 4.18111 14.0133 4.41111C15.3611 6.62889 15.3178 9.61111 13.8933 11.7822C12.6811 13.69 10.4944 14.9444 8.22889 14.9822C6.82333 15.0356 5.4 14.6567 4.22 13.8889C2.72111 12.9333 1.60889 11.3867 1.19778 9.65556C0.78 7.89333 1.05 5.96444 1.99111 4.41C1.48111 4.12111 0.821111 3.60222 1.06778 2.93556C1.39333 2.28889 2.11333 1.99333 2.75222 1.74778C4.24555 1.24889 5.82778 1.07222 7.39444 1.02444C7.79445 1.00556 8.19556 1.00667 8.59556 1.02444C9.62556 1.02889 10.6522 1.15333 11.6656 1.33778Z" fill="black"/>
<path d="M13.8455 3.15898C13.4166 2.84009 12.891 2.69787 12.3888 2.53564C12.7699 2.84898 13.111 3.20787 13.441 3.57342C13.5866 3.45564 13.9799 3.41009 13.8455 3.15898Z" fill="black"/>
<path d="M3.62109 2.52661C3.05887 2.68772 2.52109 2.92661 2.02998 3.2455C2.20332 3.35994 2.37554 3.47661 2.55887 3.5755C2.89109 3.20439 3.23665 2.84328 3.62109 2.52661Z" fill="black"/>
<path d="M12.5045 7.74558C12.629 6.74113 11.8112 5.74447 10.7845 5.74558C9.73565 5.69891 8.85343 6.7078 9.01232 7.74224C9.17121 7.74336 9.32899 7.74335 9.48677 7.74447C9.50677 7.07558 10.0934 6.45224 10.7801 6.49669C11.4368 6.49224 12.0034 7.08336 11.999 7.73447C12.1679 7.73891 12.3357 7.74224 12.5045 7.74558Z" fill="black"/>
<path d="M6.50195 6.27229C5.93862 5.68118 4.95306 5.57451 4.28195 6.04118C3.7164 6.40007 3.4364 7.09118 3.49529 7.74562C3.66306 7.74229 3.83084 7.73896 3.99751 7.7334C3.99306 7.07784 4.56862 6.49229 5.22417 6.49673C5.91084 6.45229 6.48862 7.08007 6.51084 7.74451C6.67084 7.7434 6.83084 7.74229 6.99084 7.74229C7.02306 7.21229 6.89529 6.65229 6.50195 6.27229Z" fill="black"/>
<path d="M11.2698 9.62665C11.0721 9.5322 10.7732 9.52109 10.6354 9.7222C10.3721 10.0589 10.1343 10.4255 9.77539 10.6711C8.56428 11.59 6.66317 11.3811 5.71872 10.1778C5.50317 9.95331 5.3765 9.5322 5.00095 9.56442C4.62761 9.52776 4.36761 10.0033 4.57872 10.3066C5.43761 11.8355 7.43206 12.6089 9.10206 12.0855C10.0576 11.8089 10.9354 11.1844 11.4265 10.31C11.5709 10.0833 11.4898 9.7722 11.2698 9.62665Z" fill="black"/>
<path d="M11.6654 1.33775C10.6521 1.1533 9.6254 1.02886 8.5954 1.02441C9.97762 1.13219 11.2943 1.69441 12.3887 2.53552C12.891 2.69775 13.4165 2.83997 13.8454 3.15886C13.9798 3.40997 13.5865 3.45552 13.441 3.5733C12.121 4.18775 10.6498 4.35664 9.21317 4.46775C7.80651 4.53886 6.39095 4.49219 4.99873 4.27219C4.16429 4.13108 3.32651 3.94441 2.55873 3.57552C2.3754 3.47664 2.20317 3.35997 2.02984 3.24552C2.52095 2.92664 3.05873 2.68775 3.62095 2.52664C4.70984 1.69219 6.01984 1.13441 7.39429 1.02441C5.82762 1.07219 4.2454 1.24886 2.75206 1.74775C2.11317 1.9933 1.39318 2.28886 1.06762 2.93553C0.820952 3.60219 1.48095 4.12108 1.99095 4.40997C2.79762 4.8433 3.70206 5.0433 4.5954 5.20664C6.98095 5.61775 9.43762 5.58997 11.8143 5.13108C12.5698 4.9733 13.331 4.78441 14.0132 4.41108C14.4043 4.18108 14.8165 3.88108 14.9632 3.4333C15.0954 2.95886 14.7276 2.55552 14.3721 2.3033C13.5698 1.75553 12.6043 1.52553 11.6654 1.33775Z" fill="#00BCF2"/>
<path d="M12.3887 2.53561C11.2943 1.6945 9.97758 1.13227 8.59536 1.0245C8.19536 1.00672 7.79425 1.00561 7.39425 1.0245C6.01981 1.1345 4.70981 1.69227 3.62092 2.52672C3.23647 2.84338 2.89092 3.2045 2.5587 3.57561C3.32647 3.9445 4.16425 4.13116 4.9987 4.27227C6.39092 4.49227 7.80647 4.53894 9.21314 4.46783C10.6498 4.35672 12.1209 4.18783 13.4409 3.57338C13.1109 3.20783 12.7698 2.84894 12.3887 2.53561V2.53561Z" fill="#FFC83D"/>
<path d="M14.0132 4.41115C13.3309 4.78448 12.5698 4.97337 11.8143 5.13115C9.43761 5.59003 6.98094 5.61781 4.59539 5.2067C3.70206 5.04337 2.79761 4.84337 1.99094 4.41003C1.04983 5.96448 0.779834 7.89337 1.19761 9.65559C1.60872 11.3867 2.72095 12.9334 4.21983 13.8889C5.39983 14.6567 6.82317 15.0356 8.22872 14.9823C10.4943 14.9445 12.6809 13.69 13.8932 11.7823C15.3176 9.61115 15.3609 6.62892 14.0132 4.41115V4.41115ZM12.5043 7.74559C12.3354 7.74226 12.1676 7.73892 11.9987 7.73448C12.0032 7.08337 11.4365 6.49226 10.7798 6.4967C10.0932 6.45226 9.5065 7.07559 9.4865 7.74448C9.32872 7.74337 9.17094 7.74337 9.01206 7.74226C8.85317 6.70781 9.73539 5.69892 10.7843 5.74559C11.8109 5.74448 12.6287 6.74115 12.5043 7.74559V7.74559ZM6.50206 6.27226C6.89539 6.65226 7.02317 7.21226 6.99094 7.74226C6.83094 7.74226 6.67094 7.74337 6.51094 7.74448C6.48872 7.08003 5.91094 6.45226 5.22428 6.4967C4.56872 6.49226 3.99317 7.07781 3.99761 7.73337C3.83095 7.73892 3.66317 7.74226 3.49539 7.74559C3.4365 7.09115 3.7165 6.40003 4.28206 6.04115C4.95317 5.57448 5.93872 5.68115 6.50206 6.27226V6.27226ZM11.2698 9.6267C11.4898 9.77226 11.5709 10.0834 11.4265 10.31C10.9354 11.1845 10.0576 11.8089 9.10206 12.0856C7.43206 12.6089 5.43761 11.8356 4.57872 10.3067C4.36761 10.0034 4.62761 9.52781 5.00095 9.56448C5.3765 9.53226 5.50317 9.95337 5.71872 10.1778C6.66317 11.3811 8.56428 11.59 9.77539 10.6711C10.1343 10.4256 10.3721 10.0589 10.6354 9.72226C10.7732 9.52115 11.0721 9.53226 11.2698 9.6267V9.6267Z" fill="#FFC83D"/>
</g>
<defs>
<clipPath id="clip0_158_83">
<rect width="16" height="16" fill="white" transform="matrix(-1 0 0 1 16 0)"/>
</clipPath>
</defs>
</svg>
