<svg width="16" height="16" viewBox="0 0 16 16" fill="none" xmlns="http://www.w3.org/2000/svg">
<g clip-path="url(#clip0_158_84)">
<path d="M0 4.67891C0.156667 2.67891 1.97222 0.943352 4.00222 1.01335C6.11 0.943352 8 2.82669 8 4.92446C8.01111 2.94891 9.67778 1.14002 11.6589 1.02446C12.8956 0.898908 14.1589 1.41669 14.9822 2.34113C15.5444 2.97891 15.8989 3.79113 16 4.63446V11.3422C15.8378 13.3378 14.0144 15.0578 11.9933 14.9867C9.93778 15.0534 8.09556 13.2622 8.00111 11.2256C7.90778 13.2645 6.06111 15.0522 4.00556 14.9867C1.97444 15.0589 0.15 13.32 0 11.3167L0 4.67891ZM2.89222 2.20891C1.90111 2.59446 1.14444 3.5478 1.03333 4.61002C0.946667 5.55446 0.996667 6.50446 1.00444 7.45113C0.945556 8.07557 1.02 8.69891 1.06556 9.32113C1.03444 8.4178 1.65222 7.60224 2.44889 7.23335C3.46778 6.74557 4.79778 7.05891 5.47222 7.97113C5.99556 8.62224 6.11556 9.53891 5.85889 10.3234C5.52444 11.3167 4.50667 12.0467 3.45111 11.9867C2.22111 12.0089 1.02889 10.9389 1.06333 9.6778C1.03 10.5134 0.885556 11.4067 1.25444 12.1922C1.72 13.2989 2.90667 14.0656 4.11222 13.9834C5.62333 13.9834 6.98111 12.6267 6.98222 11.1156C6.98667 9.03669 6.98556 6.95891 6.98222 4.88002C6.98667 3.48002 5.82667 2.20669 4.44556 2.03446C3.92444 1.9878 3.37889 1.99557 2.89222 2.20891ZM9.39889 3.50557C8.96778 4.22002 8.96889 5.08558 9.01333 5.89113C8.99444 7.03446 8.99111 8.17891 9.05778 9.32113C9.03667 8.02669 10.2856 6.93558 11.5533 7.01224C12.8044 6.98891 13.9478 8.08446 13.9822 9.33446C14.1411 10.7567 12.8578 12.0534 11.4489 12.0067C10.2256 11.9834 9.03 10.9511 9.06556 9.68113C9.01111 10.5967 8.88 11.5922 9.36778 12.4222C10.0144 13.6822 11.6122 14.3045 12.9456 13.8445C14.1033 13.4678 14.9778 12.33 14.9889 11.1045C15.0267 9.56113 14.9478 8.01669 15.0078 6.47224C14.9444 5.64002 15.1189 4.77446 14.8211 3.97224C14.4156 2.8178 13.2367 1.96224 12.0033 2.01224C10.9456 1.97002 9.91667 2.59224 9.39889 3.50557ZM3.93556 8.06891C3.42333 8.28113 3.34667 9.07113 3.82444 9.36224C4.26889 9.71335 5.01111 9.34002 4.98778 8.77669C5.05 8.23113 4.41444 7.84224 3.93556 8.06891ZM11.9411 8.06669C11.4289 8.2778 11.3444 9.06002 11.8189 9.3578C12.2589 9.71446 13.0089 9.34891 12.9889 8.78224C13.0567 8.23557 12.4222 7.84446 11.9411 8.06669Z" fill="black"/>
<path d="M2.89243 2.2089C3.3791 1.99556 3.92466 1.98779 4.44577 2.03445C5.82688 2.20667 6.98688 3.48001 6.98243 4.88001C6.98577 6.9589 6.98688 9.03667 6.98243 11.1156C6.98132 12.6267 5.62355 13.9833 4.11243 13.9833C2.90688 14.0656 1.72021 13.2989 1.25466 12.1922C0.885768 11.4067 1.03021 10.5133 1.06355 9.67779C1.0291 10.9389 2.22132 12.0089 3.45132 11.9867C4.50688 12.0467 5.52466 11.3167 5.8591 10.3233C6.11577 9.5389 5.99577 8.62223 5.47243 7.97112C4.79799 7.0589 3.46799 6.74556 2.4491 7.23334C1.65243 7.60223 1.03466 8.41779 1.06577 9.32112C1.02021 8.6989 0.945768 8.07556 1.00466 7.45112C0.996879 6.50445 0.946879 5.55445 1.03355 4.61001C1.14466 3.54779 1.90132 2.59445 2.89243 2.2089Z" fill="white"/>
<path d="M9.39884 3.50555C9.91662 2.59222 10.9455 1.96999 12.0033 2.01222C13.2366 1.96222 14.4155 2.81777 14.8211 3.97222C15.1188 4.77444 14.9444 5.63999 15.0077 6.47222C14.9477 8.01666 15.0266 9.5611 14.9888 11.1044C14.9777 12.33 14.1033 13.4678 12.9455 13.8444C11.6122 14.3044 10.0144 13.6822 9.36773 12.4222C8.87995 11.5922 9.01106 10.5967 9.06551 9.6811C9.02995 10.9511 10.2255 11.9833 11.4488 12.0067C12.8577 12.0533 14.1411 10.7567 13.9822 9.33444C13.9477 8.08444 12.8044 6.98888 11.5533 7.01222C10.2855 6.93555 9.03662 8.02666 9.05773 9.3211C8.99106 8.17888 8.9944 7.03444 9.01329 5.8911C8.96884 5.08555 8.96773 4.21999 9.39884 3.50555Z" fill="white"/>
<path d="M3.9355 8.06874C4.41439 7.84207 5.04995 8.23096 4.98773 8.77651C5.01106 9.33985 4.26884 9.71318 3.82439 9.36207C3.34661 9.07096 3.42328 8.28096 3.9355 8.06874Z" fill="white"/>
<path d="M11.9415 8.0666C12.4226 7.84438 13.0571 8.23549 12.9893 8.78216C13.0093 9.34882 12.2593 9.71438 11.8193 9.35771C11.3448 9.05994 11.4293 8.27771 11.9415 8.0666Z" fill="white"/>
</g>
<defs>
<clipPath id="clip0_158_84">
<rect width="16" height="16" fill="white"/>
</clipPath>
</defs>
</svg>
