<svg width="18" height="18" viewBox="0 0 18 18" fill="none" xmlns="http://www.w3.org/2000/svg">
<path d="M7.98648 2.37754C8.31773 1.30504 9.54023 0.617541 10.6277 0.901291C11.5852 1.10754 12.359 2.00879 12.354 2.99879C12.3502 4.15379 12.389 5.31004 12.3227 6.46379C12.8415 6.46754 13.3652 6.42754 13.8815 6.49754C14.8115 6.64004 15.624 7.43754 15.7115 8.38504C15.7615 8.65504 15.6727 9.00879 15.9627 9.16379C16.5877 9.60379 16.9177 10.3725 16.859 11.1275C16.8002 12.0713 17.0665 13.1338 16.4627 13.9538C16.249 14.3388 15.6515 14.485 15.734 15.005C15.744 16.1813 14.6602 17.1825 13.499 17.1588C9.36898 17.1613 5.23898 17.1625 1.10773 17.1575C1.10773 14.3438 1.10648 11.5313 1.10898 8.71754C2.33523 8.71004 3.56273 8.71879 4.79023 8.71254C5.80523 7.34379 6.82898 5.98129 7.85398 4.61879C7.88523 3.87379 7.77523 3.10504 7.98648 2.37754ZM9.00773 2.99879C8.94773 3.66254 9.00023 4.33129 8.97898 4.99629C7.76898 6.60754 6.55773 8.21754 5.35398 9.83379C4.32523 9.84629 3.29523 9.83754 2.26648 9.83879C2.28648 11.905 2.21898 13.9713 2.26648 16.035C4.63523 16.0325 7.00398 16.0288 9.37274 16.0363C9.68898 16.035 10.0065 16.035 10.324 16.0375C11.344 16.025 12.3627 16.0388 13.3827 16.0338C13.7752 16.0488 14.189 15.8913 14.4152 15.5588C14.659 15.2038 14.6602 14.7475 14.6065 14.3363H14.6452C14.6415 14.1513 14.639 13.965 14.6377 13.78C15.4977 13.7913 15.934 12.8275 15.7352 12.0813H15.7777C15.7665 11.8963 15.754 11.71 15.7427 11.525C15.7352 11.2288 15.7515 10.9288 15.6965 10.6363C15.5727 10.1675 15.1002 9.84504 14.6227 9.84129C14.624 9.65254 14.6277 9.46504 14.6315 9.27629C14.6102 8.96879 14.6277 8.65504 14.5602 8.35254C14.4177 7.90879 13.9727 7.60129 13.5127 7.59254C12.434 7.56754 11.3552 7.60754 10.2777 7.56879C10.4815 7.42879 10.589 7.19379 10.729 6.99754C10.9365 6.69379 11.2315 6.39629 11.229 6.00254C11.2302 4.96879 11.3152 3.93129 11.219 2.89879C11.1502 2.24004 10.374 1.78004 9.76148 2.02629C9.34398 2.16129 9.04148 2.56379 9.00773 2.99879Z" fill="black"/>
<path d="M9.00758 2.99874C9.04133 2.56374 9.34383 2.16124 9.76133 2.02624C10.3738 1.77999 11.1501 2.23999 11.2188 2.89874C11.3151 3.93124 11.2301 4.96874 11.2288 6.00249C11.2313 6.39624 10.9363 6.69374 10.7288 6.99749C10.2638 7.08249 9.76508 7.19874 9.44133 7.57249C9.00383 8.01124 8.97883 8.66499 8.97758 9.24624C8.98883 11.04 8.97758 12.8337 8.98133 14.6275C8.96258 15.1275 9.13633 15.6025 9.37258 16.0362C7.00383 16.0287 4.63508 16.0325 2.26633 16.035C2.21883 13.9712 2.28633 11.905 2.26633 9.83874C3.29508 9.83749 4.32508 9.84624 5.35383 9.83374C6.55758 8.21749 7.76883 6.60749 8.97883 4.99624C9.00008 4.33124 8.94758 3.66249 9.00758 2.99874Z" fill="#FFC83D"/>
<path d="M9.70395 8.07998C9.8102 7.83248 10.0689 7.71498 10.2777 7.56873C11.3552 7.60748 12.4339 7.56748 13.5127 7.59248C13.9727 7.60123 14.4177 7.90873 14.5602 8.35248C14.6277 8.65498 14.6102 8.96873 14.6314 9.27623C12.9352 9.29373 11.2402 9.28373 9.54395 9.28248C9.5727 8.87998 9.5502 8.45998 9.70395 8.07998Z" fill="#FFC83D"/>
<path d="M9.56379 11.5262C9.54629 10.9625 9.55754 10.3975 9.57879 9.83374C11.26 9.84999 12.9413 9.83124 14.6225 9.84124C15.1 9.84499 15.5725 10.1675 15.6963 10.6362C15.7513 10.9287 15.735 11.2287 15.7425 11.525C13.6825 11.5387 11.6225 11.5362 9.56379 11.5262Z" fill="#FFC83D"/>
<path d="M9.57653 13.7887C9.55528 13.2212 9.54904 12.6537 9.56779 12.0874C11.6228 12.0812 13.679 12.0924 15.7353 12.0812C15.934 12.8274 15.4978 13.7912 14.6378 13.7799C12.9503 13.7949 11.264 13.7762 9.57653 13.7887Z" fill="#FFC83D"/>
<path d="M9.54248 14.3424C11.23 14.3337 12.9187 14.3462 14.6062 14.3362C14.66 14.7474 14.6587 15.2037 14.415 15.5587C14.1887 15.8912 13.775 16.0487 13.3825 16.0337C12.3625 16.0387 11.3437 16.0249 10.3237 16.0374C10.0812 15.8299 9.78373 15.6487 9.64998 15.3449C9.54123 15.0224 9.56373 14.6762 9.54248 14.3424Z" fill="#FFC83D"/>
<path d="M9.44129 7.57256C9.76504 7.19881 10.2638 7.08256 10.7288 6.99756C10.5888 7.19381 10.4813 7.42881 10.2775 7.56881C10.0688 7.71506 9.81004 7.83256 9.70379 8.08006C9.55004 8.46006 9.57254 8.88006 9.54379 9.28256C11.24 9.28381 12.935 9.29381 14.6313 9.27631C14.6275 9.46506 14.6238 9.65256 14.6225 9.84131C12.9413 9.83131 11.26 9.85006 9.57879 9.83381C9.55754 10.3976 9.54629 10.9626 9.56379 11.5263C11.6225 11.5363 13.6825 11.5388 15.7425 11.5251C15.7538 11.7101 15.7663 11.8963 15.7775 12.0813H15.735C13.6788 12.0926 11.6225 12.0813 9.56754 12.0876C9.54879 12.6538 9.55504 13.2213 9.57629 13.7888C11.2638 13.7763 12.95 13.7951 14.6375 13.7801C14.6388 13.9651 14.6413 14.1513 14.645 14.3363H14.6063C12.9188 14.3463 11.23 14.3338 9.54254 14.3426C9.56379 14.6763 9.54129 15.0226 9.65004 15.3451C9.78379 15.6488 10.0813 15.8301 10.3238 16.0376C10.0063 16.0351 9.68879 16.0351 9.37254 16.0363C9.13629 15.6026 8.96254 15.1276 8.98129 14.6276C8.97754 12.8338 8.98879 11.0401 8.97754 9.24631C8.97879 8.66506 9.00379 8.01131 9.44129 7.57256Z" fill="#D48C00"/>
</svg>
